<mxfile host="65bd71144e">
    <diagram id="MYbnWvBdk4bqBpElhPf6" name="ページ1">
        <mxGraphModel dx="1011" dy="1029" grid="1" gridSize="10" guides="1" tooltips="1" connect="1" arrows="1" fold="1" page="1" pageScale="1" pageWidth="827" pageHeight="1169" math="0" shadow="0">
            <root>
                <mxCell id="0"/>
                <mxCell id="1" parent="0"/>
                <mxCell id="7" value="" style="rounded=0;whiteSpace=wrap;html=1;fillColor=none;" vertex="1" parent="1">
                    <mxGeometry x="40" y="40" width="280" height="300" as="geometry"/>
                </mxCell>
                <mxCell id="8" value="オセロでアプリ設計" style="rounded=0;whiteSpace=wrap;html=1;fillColor=none;" vertex="1" parent="1">
                    <mxGeometry x="40" y="40" width="280" height="40" as="geometry"/>
                </mxCell>
                <mxCell id="9" value="対戦" style="rounded=1;whiteSpace=wrap;html=1;fillColor=none;" vertex="1" parent="1">
                    <mxGeometry x="150" y="100" width="60" height="30" as="geometry"/>
                </mxCell>
                <mxCell id="10" value="過去の対戦結果" style="rounded=0;whiteSpace=wrap;html=1;fillColor=none;" vertex="1" parent="1">
                    <mxGeometry x="70" y="150" width="220" height="160" as="geometry"/>
                </mxCell>
                <mxCell id="11" value="" style="rounded=0;whiteSpace=wrap;html=1;fillColor=none;" vertex="1" parent="1">
                    <mxGeometry x="414" y="40" width="280" height="300" as="geometry"/>
                </mxCell>
                <mxCell id="12" value="オセロでアプリ設計" style="rounded=0;whiteSpace=wrap;html=1;fillColor=none;" vertex="1" parent="1">
                    <mxGeometry x="414" y="40" width="280" height="40" as="geometry"/>
                </mxCell>
                <mxCell id="13" value="メッセージ" style="rounded=1;whiteSpace=wrap;html=1;fillColor=none;" vertex="1" parent="1">
                    <mxGeometry x="467" y="90" width="173" height="30" as="geometry"/>
                </mxCell>
                <mxCell id="14" value="盤面" style="rounded=0;whiteSpace=wrap;html=1;fillColor=none;" vertex="1" parent="1">
                    <mxGeometry x="467" y="130" width="174" height="160" as="geometry"/>
                </mxCell>
                <mxCell id="15" value="次は黒の番です" style="text;html=1;strokeColor=none;fillColor=none;align=center;verticalAlign=middle;whiteSpace=wrap;rounded=0;" vertex="1" parent="1">
                    <mxGeometry x="467" y="300" width="173" height="30" as="geometry"/>
                </mxCell>
            </root>
        </mxGraphModel>
    </diagram>
</mxfile>